<svg width="443" height="459" viewBox="0 0 443 459" fill="none" xmlns="http://www.w3.org/2000/svg">
<g opacity="0.2" clip-path="url(#clip0_821_2584)">
<rect width="91.6154" height="88.5007" transform="matrix(-4.22253e-08 -1 -1 4.52497e-08 354.004 458.078)" stroke="#4765E2" stroke-width="2"/>
<rect width="91.6154" height="88.5007" transform="matrix(-4.22253e-08 -1 -1 4.52497e-08 177.002 458.078)" stroke="#4765E2" stroke-width="2"/>
<rect width="91.6154" height="88.5007" transform="matrix(-4.22253e-08 -1 -1 4.52497e-08 265.502 458.078)" stroke="#4765E2" stroke-width="2"/>
<rect width="91.6154" height="88.5007" transform="matrix(-4.22253e-08 -1 -1 4.52497e-08 88.502 458.078)" stroke="#4765E2" stroke-width="2"/>
<rect width="91.6154" height="88.5007" transform="matrix(-4.22253e-08 -1 -1 4.52497e-08 442.504 458.078)" stroke="#4765E2" stroke-width="2"/>
<rect width="91.6154" height="88.5007" transform="matrix(-4.22253e-08 -1 -1 4.52497e-08 354.004 366.463)" stroke="#4765E2" stroke-width="2"/>
<rect width="91.6154" height="88.5007" transform="matrix(-4.22253e-08 -1 -1 4.52497e-08 177.002 366.463)" stroke="#4765E2" stroke-width="2"/>
<rect width="91.6154" height="88.5007" transform="matrix(-4.22253e-08 -1 -1 4.52497e-08 265.502 366.463)" stroke="#4765E2" stroke-width="2"/>
<rect width="91.6154" height="88.5007" transform="matrix(-4.22253e-08 -1 -1 4.52497e-08 88.502 366.463)" stroke="#4765E2" stroke-width="2"/>
<rect width="91.6154" height="88.5007" transform="matrix(-4.22253e-08 -1 -1 4.52497e-08 442.504 366.463)" stroke="#4765E2" stroke-width="2"/>
<rect width="91.6154" height="88.5007" transform="matrix(-4.22253e-08 -1 -1 4.52497e-08 354.004 274.848)" stroke="#4765E2" stroke-width="2"/>
<rect width="91.6154" height="88.5007" transform="matrix(-4.22253e-08 -1 -1 4.52497e-08 177.002 274.848)" stroke="#4765E2" stroke-width="2"/>
<rect width="91.6154" height="88.5007" transform="matrix(-4.22253e-08 -1 -1 4.52497e-08 265.502 274.848)" stroke="#4765E2" stroke-width="2"/>
<rect width="91.6154" height="88.5007" transform="matrix(-4.22253e-08 -1 -1 4.52497e-08 88.502 274.848)" stroke="#4765E2" stroke-width="2"/>
<rect width="91.6154" height="88.5007" transform="matrix(-4.22253e-08 -1 -1 4.52497e-08 442.504 274.848)" stroke="#4765E2" stroke-width="2"/>
<rect width="91.6154" height="88.5007" transform="matrix(-4.22253e-08 -1 -1 4.52497e-08 354.004 183.232)" stroke="#4765E2" stroke-width="2"/>
<rect width="91.6154" height="88.5007" transform="matrix(-4.22253e-08 -1 -1 4.52497e-08 354.004 91.6172)" stroke="#4765E2" stroke-width="2"/>
<rect width="91.6154" height="88.5007" transform="matrix(-4.22253e-08 -1 -1 4.52497e-08 177.002 183.232)" stroke="#4765E2" stroke-width="2"/>
<rect width="91.6154" height="88.5007" transform="matrix(-4.22253e-08 -1 -1 4.52497e-08 265.502 183.232)" stroke="#4765E2" stroke-width="2"/>
<rect width="91.6154" height="88.5007" transform="matrix(-4.22253e-08 -1 -1 4.52497e-08 265.502 91.6172)" stroke="#4765E2" stroke-width="2"/>
<rect width="91.6154" height="88.5007" transform="matrix(-4.22253e-08 -1 -1 4.52497e-08 442.504 183.232)" stroke="#4765E2" stroke-width="2"/>
</g>
<defs>
<clipPath id="clip0_821_2584">
<rect width="458.077" height="442.503" fill="white" transform="matrix(-4.22253e-08 -1 -1 4.52497e-08 442.504 458.078)"/>
</clipPath>
</defs>
</svg>
