<svg width="353" height="459" viewBox="0 0 353 459" fill="none" xmlns="http://www.w3.org/2000/svg">
<g opacity="0.2" clip-path="url(#clip0_845_2350)">
<rect x="88.5" y="458.078" width="91.6154" height="88.5007" transform="rotate(-90 88.5 458.078)" stroke="#4765E2" stroke-width="2"/>
<rect x="265.502" y="458.078" width="91.6154" height="88.5007" transform="rotate(-90 265.502 458.078)" stroke="#4765E2" stroke-width="2"/>
<rect x="177.002" y="458.078" width="91.6154" height="88.5007" transform="rotate(-90 177.002 458.078)" stroke="#4765E2" stroke-width="2"/>
<rect y="458.078" width="91.6154" height="88.5007" transform="rotate(-90 0 458.078)" stroke="#4765E2" stroke-width="2"/>
<rect x="88.5" y="366.463" width="91.6154" height="88.5007" transform="rotate(-90 88.5 366.463)" stroke="#4765E2" stroke-width="2"/>
<rect x="265.502" y="366.463" width="91.6154" height="88.5007" transform="rotate(-90 265.502 366.463)" stroke="#4765E2" stroke-width="2"/>
<rect x="177.002" y="366.463" width="91.6154" height="88.5007" transform="rotate(-90 177.002 366.463)" stroke="#4765E2" stroke-width="2"/>
<rect y="366.463" width="91.6154" height="88.5007" transform="rotate(-90 0 366.463)" stroke="#4765E2" stroke-width="2"/>
<rect x="88.5" y="274.848" width="91.6154" height="88.5007" transform="rotate(-90 88.5 274.848)" stroke="#4765E2" stroke-width="2"/>
<rect x="265.502" y="274.848" width="91.6154" height="88.5007" transform="rotate(-90 265.502 274.848)" stroke="#4765E2" stroke-width="2"/>
<rect x="177.002" y="274.848" width="91.6154" height="88.5007" transform="rotate(-90 177.002 274.848)" stroke="#4765E2" stroke-width="2"/>
<rect y="274.848" width="91.6154" height="88.5007" transform="rotate(-90 0 274.848)" stroke="#4765E2" stroke-width="2"/>
<rect x="88.5" y="183.232" width="91.6154" height="88.5007" transform="rotate(-90 88.5 183.232)" stroke="#4765E2" stroke-width="2"/>
<rect x="88.5" y="91.6172" width="91.6154" height="88.5007" transform="rotate(-90 88.5 91.6172)" stroke="#4765E2" stroke-width="2"/>
<rect x="265.502" y="183.232" width="91.6154" height="88.5007" transform="rotate(-90 265.502 183.232)" stroke="#4765E2" stroke-width="2"/>
<rect x="177.002" y="183.232" width="91.6154" height="88.5007" transform="rotate(-90 177.002 183.232)" stroke="#4765E2" stroke-width="2"/>
<rect x="177.002" y="91.6172" width="91.6154" height="88.5007" transform="rotate(-90 177.002 91.6172)" stroke="#4765E2" stroke-width="2"/>
<rect y="183.232" width="91.6154" height="88.5007" transform="rotate(-90 0 183.232)" stroke="#4765E2" stroke-width="2"/>
</g>
<defs>
<clipPath id="clip0_845_2350">
<rect width="458.077" height="442.503" fill="white" transform="translate(0 458.078) rotate(-90)"/>
</clipPath>
</defs>
</svg>
