<svg width="116" height="56" viewBox="0 0 116 56" fill="none" xmlns="http://www.w3.org/2000/svg">
<path d="M3.90348 3.74446H14.5793C15.8092 3.74446 16.7669 4.16786 17.4524 5.01467C18.1379 5.86148 18.3799 6.91999 18.1782 8.1902L17.6339 11.275C17.3516 12.7267 16.535 13.8154 15.1842 14.5413C15.789 14.8437 16.2225 15.2873 16.4846 15.872C16.7467 16.4567 16.8173 17.1019 16.6963 17.8075L16.0915 21.3762C15.8697 22.6464 15.3253 23.6545 14.4583 24.4005C13.5914 25.1465 12.5429 25.5195 11.3131 25.5195H0.0928415L3.90348 3.74446ZM6.74634 12.4545H11.9482C12.2304 12.4545 12.4421 12.4444 12.5833 12.4242C12.7244 12.3839 12.8555 12.273 12.9764 12.0916C13.1176 11.9101 13.2184 11.6379 13.2789 11.275L13.7325 8.67409C13.793 8.33134 13.7728 8.09947 13.672 7.9785C13.5914 7.85753 13.3897 7.79704 13.0672 7.79704H7.5629L6.74634 12.4545ZM5.14345 21.4669H10.5872C11.3534 21.4669 11.7969 21.0738 11.9179 20.2875L12.4623 17.1422C12.4825 17.0414 12.4925 16.9506 12.4925 16.87C12.5127 16.7893 12.5127 16.7289 12.4925 16.6885C12.4724 16.628 12.4623 16.5776 12.4623 16.5373C12.4623 16.497 12.432 16.4667 12.3716 16.4466C12.3111 16.4063 12.2708 16.3861 12.2506 16.3861C12.2304 16.3659 12.1699 16.3559 12.0691 16.3559C11.9885 16.3357 11.928 16.3256 11.8877 16.3256C11.8675 16.3256 11.7969 16.3256 11.676 16.3256C11.555 16.3256 11.4743 16.3256 11.434 16.3256H6.05074L5.14345 21.4669ZM30.9387 20.6201H24.1038L21.8658 25.5195H17.1781L27.8237 3.74446H32.9045L35.9591 25.5195H31.4831L30.9387 20.6201ZM30.4851 16.5071L29.608 8.49263L25.9789 16.5071H30.4851ZM51.2817 10.4584L51.6144 8.61361C51.6749 8.27085 51.6547 8.03899 51.5539 7.91801C51.4733 7.79704 51.2817 7.73656 50.9793 7.73656H46.7453C45.9791 7.73656 45.5355 8.12972 45.4146 8.91604L45.0517 11.0331C45.0113 11.3355 45.0315 11.5472 45.1121 11.6682C45.2129 11.769 45.4146 11.8597 45.717 11.9404L51.0096 13.1501C52.3201 13.4727 53.308 14.0171 53.9734 14.7832C54.6387 15.5494 54.8605 16.497 54.6387 17.6261L53.9431 21.4972C53.7214 22.7674 53.177 23.7755 52.31 24.5215C51.443 25.2675 50.3946 25.6405 49.1647 25.6405H42.481C41.2309 25.6405 40.2632 25.2171 39.5776 24.3703C38.9123 23.5436 38.6905 22.4851 38.9123 21.1948L39.3659 18.5636H43.6L43.2371 20.6504C43.1766 20.9931 43.1867 21.225 43.2673 21.346C43.3681 21.4669 43.5798 21.5274 43.9024 21.5274H48.4691C49.2353 21.5274 49.6789 21.1343 49.7998 20.348L50.193 17.989C50.2333 17.6866 50.2031 17.4849 50.1023 17.3841C50.0216 17.2631 49.8301 17.1623 49.5276 17.0817L44.2351 15.872C42.9447 15.5695 41.9669 15.0352 41.3015 14.2691C40.6563 13.4828 40.4345 12.5251 40.6362 11.396L41.2713 7.7668C41.493 6.49659 42.0374 5.48848 42.9044 4.74248C43.7714 3.99649 44.8198 3.62349 46.0497 3.62349H52.3705C53.6205 3.62349 54.5782 4.04689 55.2436 4.8937C55.9291 5.72035 56.161 6.77886 55.9392 8.06923L55.5158 10.4584H51.2817ZM60.7571 3.74446H74.7596L74.0338 7.85753H64.3862L63.5999 12.3335H71.4027L70.6768 16.4466H62.8741L62.0273 21.4065H71.6748L70.949 25.5195H56.9464L60.7571 3.74446Z" fill="#4765E2"/>
<path d="M27.9562 30.6527H38.632C39.8619 30.6527 40.8196 31.0761 41.5051 31.9229C42.1907 32.7697 42.4326 33.8282 42.231 35.0984L41.6866 38.1832C41.4043 39.6349 40.5878 40.7236 39.2369 41.4495C39.8418 41.7519 40.2753 42.1955 40.5374 42.7802C40.7995 43.3649 40.87 44.0101 40.7491 44.7157L40.1442 48.2844C39.9224 49.5546 39.378 50.5627 38.5111 51.3087C37.6441 52.0547 36.5957 52.4277 35.3658 52.4277H24.1456L27.9562 30.6527ZM30.7991 39.3627H36.0009C36.2832 39.3627 36.4949 39.3526 36.636 39.3324C36.7771 39.2921 36.9082 39.1812 37.0292 38.9998C37.1703 38.8183 37.2711 38.5461 37.3316 38.1832L37.7852 35.5823C37.8457 35.2395 37.8256 35.0077 37.7248 34.8867C37.6441 34.7657 37.4425 34.7052 37.1199 34.7052H31.6156L30.7991 39.3627ZM29.1962 48.3752H34.64C35.4061 48.3752 35.8497 47.982 35.9707 47.1957L36.515 44.0504C36.5352 43.9496 36.5453 43.8588 36.5453 43.7782C36.5654 43.6975 36.5654 43.6371 36.5453 43.5967C36.5251 43.5362 36.515 43.4858 36.515 43.4455C36.515 43.4052 36.4848 43.3749 36.4243 43.3548C36.3638 43.3145 36.3235 43.2943 36.3033 43.2943C36.2832 43.2741 36.2227 43.2641 36.1219 43.2641C36.0412 43.2439 35.9807 43.2338 35.9404 43.2338C35.9202 43.2338 35.8497 43.2338 35.7287 43.2338C35.6077 43.2338 35.5271 43.2338 35.4868 43.2338H30.1035L29.1962 48.3752ZM47.1831 30.6527H61.1856L60.4598 34.7657H50.8122L50.0259 39.2417H57.8287L57.1028 43.3548H49.3001L48.4533 48.3147H58.1008L57.375 52.4277H43.3724L47.1831 30.6527ZM78.0587 34.7052H72.5242L69.4092 52.4277H65.0542L68.1692 34.7052H62.6347L63.3303 30.6527H78.7543L78.0587 34.7052ZM90.5447 37.3666L90.8773 35.5218C90.9378 35.1791 90.9177 34.9472 90.8168 34.8262C90.7362 34.7052 90.5447 34.6448 90.2422 34.6448H86.0082C85.242 34.6448 84.7985 35.0379 84.6775 35.8242L84.3146 37.9413C84.2742 38.2437 84.2944 38.4554 84.3751 38.5764C84.4759 38.6772 84.6775 38.7679 84.9799 38.8486L90.2725 40.0583C91.583 40.3809 92.571 40.9253 93.2363 41.6914C93.9016 42.4576 94.1234 43.4052 93.9017 44.5343L93.2061 48.4054C92.9843 49.6756 92.4399 50.6837 91.5729 51.4297C90.706 52.1757 89.6575 52.5487 88.4276 52.5487H81.7439C80.4939 52.5487 79.5261 52.1253 78.8406 51.2785C78.1752 50.4518 77.9534 49.3933 78.1752 48.103L78.6289 45.4718H82.8629L82.5 47.5586C82.4395 47.9013 82.4496 48.1332 82.5302 48.2542C82.631 48.3752 82.8427 48.4356 83.1653 48.4356H87.732C88.4982 48.4356 88.9418 48.0425 89.0627 47.2562L89.4559 44.8972C89.4962 44.5948 89.466 44.3931 89.3652 44.2923C89.2845 44.1714 89.093 44.0705 88.7906 43.9899L83.498 42.7802C82.2076 42.4777 81.2298 41.9434 80.5644 41.1773C79.9192 40.391 79.6974 39.4333 79.8991 38.3042L80.5342 34.675C80.756 33.4048 81.3003 32.3967 82.1673 31.6507C83.0343 30.9047 84.0827 30.5317 85.3126 30.5317H91.6334C92.8835 30.5317 93.8412 30.9551 94.5065 31.8019C95.192 32.6285 95.4239 33.6871 95.2021 34.9774L94.7787 37.3666H90.5447Z" fill="black"/>
<path d="M80.5016 16.6002C78.9867 15.8261 77.1812 15.4914 74.6078 15.345C74.6078 15.3031 74.6078 15.2822 74.6078 15.2404C74.6078 15.1985 74.6078 15.1776 74.6078 15.1358C77.1812 14.9893 78.9659 14.6755 80.5016 13.8806C82.826 12.6881 84.7145 10.7844 85.8974 8.44133C86.6652 6.91416 86.9973 5.0941 87.1425 2.5C87.184 2.5 87.2048 2.5 87.2463 2.5C87.2878 2.5 87.3086 2.5 87.3501 2.5C87.4953 5.0941 87.8066 6.89324 88.5952 8.44133C89.7781 10.7844 91.6667 12.6881 93.991 13.8806C95.5059 14.6546 97.3114 14.9893 99.8848 15.1358C99.8848 15.1776 99.8848 15.1985 99.8848 15.2404C99.8848 15.2822 99.8848 15.3031 99.8848 15.345C97.3114 15.4914 95.5267 15.8052 93.991 16.6002C91.6667 17.7926 89.7781 19.6964 88.5952 22.0394C87.8274 23.5666 87.4953 25.3867 87.3501 27.9808C87.3086 27.9808 87.2878 27.9808 87.2463 27.9808C87.2048 27.9808 87.184 27.9808 87.1425 27.9808C86.9973 25.3867 86.6652 23.5875 85.8974 22.0394C84.7145 19.6964 82.826 17.7926 80.5016 16.6002Z" fill="url(#paint0_linear_827_2684)"/>
<defs>
<linearGradient id="paint0_linear_827_2684" x1="85.3098" y1="10.0423" x2="91.629" y2="26.2481" gradientUnits="userSpaceOnUse">
<stop stop-color="#E73E53"/>
<stop offset="1" stop-color="#BC4655"/>
</linearGradient>
</defs>
</svg>
