<svg width="116" height="56" viewBox="0 0 116 56" fill="none" xmlns="http://www.w3.org/2000/svg">
<path d="M3.90348 4.24446H14.5793C15.8092 4.24446 16.7669 4.66786 17.4524 5.51467C18.1379 6.36148 18.3799 7.41999 18.1782 8.6902L17.6339 11.775C17.3516 13.2267 16.535 14.3154 15.1842 15.0413C15.789 15.3437 16.2225 15.7873 16.4846 16.372C16.7467 16.9567 16.8173 17.6019 16.6963 18.3075L16.0915 21.8762C15.8697 23.1464 15.3253 24.1545 14.4583 24.9005C13.5914 25.6465 12.5429 26.0195 11.3131 26.0195H0.0928415L3.90348 4.24446ZM6.74634 12.9545H11.9482C12.2304 12.9545 12.4421 12.9444 12.5833 12.9242C12.7244 12.8839 12.8555 12.773 12.9764 12.5916C13.1176 12.4101 13.2184 12.1379 13.2789 11.775L13.7325 9.17409C13.793 8.83134 13.7728 8.59947 13.672 8.4785C13.5914 8.35753 13.3897 8.29704 13.0672 8.29704H7.5629L6.74634 12.9545ZM5.14345 21.9669H10.5872C11.3534 21.9669 11.7969 21.5738 11.9179 20.7875L12.4623 17.6422C12.4825 17.5414 12.4925 17.4506 12.4925 17.37C12.5127 17.2893 12.5127 17.2289 12.4925 17.1885C12.4724 17.128 12.4623 17.0776 12.4623 17.0373C12.4623 16.997 12.432 16.9667 12.3716 16.9466C12.3111 16.9063 12.2708 16.8861 12.2506 16.8861C12.2304 16.8659 12.1699 16.8559 12.0691 16.8559C11.9885 16.8357 11.928 16.8256 11.8877 16.8256C11.8675 16.8256 11.7969 16.8256 11.676 16.8256C11.555 16.8256 11.4743 16.8256 11.434 16.8256H6.05074L5.14345 21.9669ZM30.9387 21.1201H24.1038L21.8658 26.0195H17.1781L27.8237 4.24446H32.9045L35.9591 26.0195H31.4831L30.9387 21.1201ZM30.4851 17.0071L29.608 8.99263L25.9789 17.0071H30.4851ZM51.2817 10.9584L51.6144 9.11361C51.6749 8.77085 51.6547 8.53899 51.5539 8.41801C51.4733 8.29704 51.2817 8.23656 50.9793 8.23656H46.7453C45.9791 8.23656 45.5355 8.62972 45.4146 9.41604L45.0517 11.5331C45.0113 11.8355 45.0315 12.0472 45.1121 12.1682C45.2129 12.269 45.4146 12.3597 45.717 12.4404L51.0096 13.6501C52.3201 13.9727 53.308 14.5171 53.9734 15.2832C54.6387 16.0494 54.8605 16.997 54.6387 18.1261L53.9431 21.9972C53.7214 23.2674 53.177 24.2755 52.31 25.0215C51.443 25.7675 50.3946 26.1405 49.1647 26.1405H42.481C41.2309 26.1405 40.2632 25.7171 39.5776 24.8703C38.9123 24.0436 38.6905 22.9851 38.9123 21.6948L39.3659 19.0636H43.6L43.2371 21.1504C43.1766 21.4931 43.1867 21.725 43.2673 21.846C43.3681 21.9669 43.5798 22.0274 43.9024 22.0274H48.4691C49.2353 22.0274 49.6789 21.6343 49.7998 20.848L50.193 18.489C50.2333 18.1866 50.2031 17.9849 50.1023 17.8841C50.0216 17.7631 49.8301 17.6623 49.5276 17.5817L44.2351 16.372C42.9447 16.0695 41.9669 15.5352 41.3015 14.7691C40.6563 13.9828 40.4345 13.0251 40.6362 11.896L41.2713 8.2668C41.493 6.99659 42.0374 5.98848 42.9044 5.24248C43.7714 4.49649 44.8198 4.12349 46.0497 4.12349H52.3705C53.6205 4.12349 54.5782 4.54689 55.2436 5.3937C55.9291 6.22035 56.161 7.27886 55.9392 8.56923L55.5158 10.9584H51.2817ZM60.7571 4.24446H74.7596L74.0338 8.35753H64.3862L63.5999 12.8335H71.4027L70.6768 16.9466H62.8741L62.0273 21.9065H71.6748L70.949 26.0195H56.9464L60.7571 4.24446Z" fill="#4765E2"/>
<path d="M27.9562 31.1527H38.632C39.8619 31.1527 40.8196 31.5761 41.5051 32.4229C42.1907 33.2697 42.4326 34.3282 42.231 35.5984L41.6866 38.6832C41.4043 40.1349 40.5878 41.2236 39.2369 41.9495C39.8418 42.2519 40.2753 42.6955 40.5374 43.2802C40.7995 43.8649 40.87 44.5101 40.7491 45.2157L40.1442 48.7844C39.9224 50.0546 39.378 51.0627 38.5111 51.8087C37.6441 52.5547 36.5957 52.9277 35.3658 52.9277H24.1456L27.9562 31.1527ZM30.7991 39.8627H36.0009C36.2832 39.8627 36.4949 39.8526 36.636 39.8324C36.7771 39.7921 36.9082 39.6812 37.0292 39.4998C37.1703 39.3183 37.2711 39.0461 37.3316 38.6832L37.7852 36.0823C37.8457 35.7395 37.8256 35.5077 37.7248 35.3867C37.6441 35.2657 37.4425 35.2052 37.1199 35.2052H31.6156L30.7991 39.8627ZM29.1962 48.8752H34.64C35.4061 48.8752 35.8497 48.482 35.9707 47.6957L36.515 44.5504C36.5352 44.4496 36.5453 44.3588 36.5453 44.2782C36.5654 44.1975 36.5654 44.1371 36.5453 44.0967C36.5251 44.0362 36.515 43.9858 36.515 43.9455C36.515 43.9052 36.4848 43.8749 36.4243 43.8548C36.3638 43.8145 36.3235 43.7943 36.3033 43.7943C36.2832 43.7741 36.2227 43.7641 36.1219 43.7641C36.0412 43.7439 35.9807 43.7338 35.9404 43.7338C35.9202 43.7338 35.8497 43.7338 35.7287 43.7338C35.6077 43.7338 35.5271 43.7338 35.4868 43.7338H30.1035L29.1962 48.8752ZM47.1831 31.1527H61.1856L60.4598 35.2657H50.8122L50.0259 39.7417H57.8287L57.1028 43.8548H49.3001L48.4533 48.8147H58.1008L57.375 52.9277H43.3724L47.1831 31.1527ZM78.0587 35.2052H72.5242L69.4092 52.9277H65.0542L68.1692 35.2052H62.6347L63.3303 31.1527H78.7543L78.0587 35.2052ZM90.5447 37.8666L90.8773 36.0218C90.9378 35.6791 90.9177 35.4472 90.8168 35.3262C90.7362 35.2052 90.5447 35.1448 90.2422 35.1448H86.0082C85.242 35.1448 84.7985 35.5379 84.6775 36.3242L84.3146 38.4413C84.2742 38.7437 84.2944 38.9554 84.3751 39.0764C84.4759 39.1772 84.6775 39.2679 84.9799 39.3486L90.2725 40.5583C91.583 40.8809 92.571 41.4253 93.2363 42.1914C93.9016 42.9576 94.1234 43.9052 93.9017 45.0343L93.2061 48.9054C92.9843 50.1756 92.4399 51.1837 91.5729 51.9297C90.706 52.6757 89.6575 53.0487 88.4276 53.0487H81.7439C80.4939 53.0487 79.5261 52.6253 78.8406 51.7785C78.1752 50.9518 77.9534 49.8933 78.1752 48.603L78.6289 45.9718H82.8629L82.5 48.0586C82.4395 48.4013 82.4496 48.6332 82.5302 48.7542C82.631 48.8752 82.8427 48.9356 83.1653 48.9356H87.732C88.4982 48.9356 88.9418 48.5425 89.0627 47.7562L89.4559 45.3972C89.4962 45.0948 89.466 44.8931 89.3652 44.7923C89.2845 44.6714 89.093 44.5705 88.7906 44.4899L83.498 43.2802C82.2076 42.9777 81.2298 42.4434 80.5644 41.6773C79.9192 40.891 79.6974 39.9333 79.8991 38.8042L80.5342 35.175C80.756 33.9048 81.3003 32.8967 82.1673 32.1507C83.0343 31.4047 84.0827 31.0317 85.3126 31.0317H91.6334C92.8835 31.0317 93.8412 31.4551 94.5065 32.3019C95.192 33.1285 95.4239 34.1871 95.2021 35.4774L94.7787 37.8666H90.5447Z" fill="black"/>
<path d="M80.5016 17.1002C78.9867 16.3261 77.1812 15.9914 74.6078 15.845C74.6078 15.8031 74.6078 15.7822 74.6078 15.7404C74.6078 15.6985 74.6078 15.6776 74.6078 15.6358C77.1812 15.4893 78.9659 15.1755 80.5016 14.3806C82.826 13.1881 84.7145 11.2844 85.8974 8.94133C86.6652 7.41416 86.9973 5.5941 87.1425 3C87.184 3 87.2048 3 87.2463 3C87.2878 3 87.3086 3 87.3501 3C87.4953 5.5941 87.8066 7.39324 88.5952 8.94133C89.7781 11.2844 91.6667 13.1881 93.991 14.3806C95.5059 15.1546 97.3114 15.4893 99.8848 15.6358C99.8848 15.6776 99.8848 15.6985 99.8848 15.7404C99.8848 15.7822 99.8848 15.8031 99.8848 15.845C97.3114 15.9914 95.5267 16.3052 93.991 17.1002C91.6667 18.2926 89.7781 20.1964 88.5952 22.5394C87.8274 24.0666 87.4953 25.8867 87.3501 28.4808C87.3086 28.4808 87.2878 28.4808 87.2463 28.4808C87.2048 28.4808 87.184 28.4808 87.1425 28.4808C86.9973 25.8867 86.6652 24.0875 85.8974 22.5394C84.7145 20.1964 82.826 18.2926 80.5016 17.1002Z" fill="url(#paint0_linear_826_2649)"/>
<defs>
<linearGradient id="paint0_linear_826_2649" x1="85.3098" y1="10.5423" x2="91.629" y2="26.7481" gradientUnits="userSpaceOnUse">
<stop stop-color="#E73E53"/>
<stop offset="1" stop-color="#BC4655"/>
</linearGradient>
</defs>
</svg>
