<svg xmlns="http://www.w3.org/2000/svg" width="24" height="24" viewBox="0 0 24 24" fill="none">
<path d="M5.59607 13.2808C4.17712 12.5616 2.48974 12.2451 0.0988759 12.1042C0.0436829 12.101 6.57549e-06 12.0553 6.58032e-06 12C6.58515e-06 11.9447 0.0436982 11.899 0.0988912 11.8958C2.48922 11.7555 4.15769 11.4578 5.59607 10.7192C7.80296 9.59606 9.59606 7.80295 10.7192 5.59606C11.4384 4.17711 11.7549 2.48973 11.8958 0.0988681C11.899 0.0436757 11.9447 -1.05391e-06 12 -1.04907e-06C12.0553 -1.04424e-06 12.101 0.0436898 12.1042 0.0988828C12.2445 2.48922 12.5422 4.15768 13.2808 5.59606C14.4039 7.80295 16.197 9.59606 18.4039 10.7192C19.8229 11.4384 21.5103 11.7549 23.9011 11.8958C23.9563 11.899 24 11.9447 24 12C24 12.0553 23.9563 12.101 23.9011 12.1042C21.5108 12.2445 19.8423 12.5422 18.4039 13.2808C16.197 14.4039 14.4039 16.197 13.2808 18.4039C12.5616 19.8229 12.2451 21.5103 12.1042 23.9011C12.101 23.9563 12.0553 24 12 24C11.9447 24 11.899 23.9563 11.8958 23.9011C11.7549 21.5108 11.4384 19.8423 10.7192 18.4039C9.59606 16.197 7.80296 14.4039 5.59607 13.2808Z" fill="white"/>
</svg>